<svg width="147" height="148" viewBox="0 0 147 148" fill="none" xmlns="http://www.w3.org/2000/svg">
<circle cx="73.536" cy="73.5357" r="70.6522" fill="#BBE4FF" fill-opacity="0.4"/>
<path d="M146.928 93.5774H140.295V100.21H146.928V93.5774Z" fill="#FFCCE4"/>
<path d="M146.928 86.9443H140.295V93.577H146.928V86.9443Z" fill="#FFCCE4"/>
<path d="M146.928 80.1686H140.295V86.8012H146.928V80.1686Z" fill="#FFCCE4"/>
<path d="M146.928 73.5356H140.295V80.1683H146.928V73.5356Z" fill="#FFCCE4"/>
<path d="M146.928 66.9026H140.295V73.5353H146.928V66.9026Z" fill="#FFCCE4"/>
<path d="M146.928 60.1262H140.295V66.7589H146.928V60.1262Z" fill="#FFCCE4"/>
<path d="M146.928 53.4939H140.295V60.1265H146.928V53.4939Z" fill="#FFCCE4"/>
<path d="M146.928 46.7163H140.295V53.349H146.928V46.7163Z" fill="#FFCCE4"/>
<path d="M140.295 106.988H133.662V113.621H140.295V106.988Z" fill="#FFCCE4"/>
<path d="M140.295 100.21H133.662V106.843H140.295V100.21Z" fill="#FFCCE4"/>
<path d="M140.295 40.0839H133.662V46.7165H140.295V40.0839Z" fill="#F1F4CE"/>
<path d="M140.295 33.4515H133.662V40.0842H140.295V33.4515Z" fill="#F1F4CE"/>
<path d="M133.518 113.62H126.885V120.252H133.518V113.62Z" fill="#FFCCE4"/>
<path d="M133.518 26.6746H126.885V33.3072H133.518V26.6746Z" fill="#F1F4CE"/>
<path d="M126.886 120.253H120.253V126.885H126.886V120.253Z" fill="#FFCCE4"/>
<path d="M126.886 20.0415H120.253V26.6742H126.886V20.0415Z" fill="#F1F4CE"/>
<path d="M120.253 127.029H113.62V133.662H120.253V127.029Z" fill="#FFCCE4"/>
<path d="M120.253 13.4086H113.62V20.0412H120.253V13.4086Z" fill="#F1F4CE"/>
<path d="M113.476 127.029H106.844V133.662H113.476V127.029Z" fill="#FFCCE4"/>
<path d="M113.476 100.21H106.844V106.843H113.476V100.21Z" fill="#BBE4FF"/>
<path d="M113.476 13.4086H106.844V20.0412H113.476V13.4086Z" fill="#F1F4CE"/>
<path d="M106.843 133.662H100.211V140.295H106.843V133.662Z" fill="#FFCCE4"/>
<path d="M106.843 100.21H100.211V106.843H106.843V100.21Z" fill="#BBE4FF"/>
<path d="M106.843 6.6322H100.211V13.2648H106.843V6.6322Z" fill="#F1F4CE"/>
<path d="M100.211 133.662H93.5781V140.295H100.211V133.662Z" fill="#FFCCE4"/>
<path d="M100.211 106.988H93.5781V113.621H100.211V106.988Z" fill="#F1F4CE"/>
<path d="M100.211 6.6322H93.5781V13.2648H100.211V6.6322Z" fill="#F1F4CE"/>
<path d="M93.4334 133.662H86.8008V140.295H93.4334V133.662Z" fill="#FFCCE4"/>
<path d="M93.4334 106.988H86.8008V113.621H93.4334V106.988Z" fill="#F1F4CE"/>
<path d="M93.4334 6.6322H86.8008V13.2648H93.4334V6.6322Z" fill="#F1F4CE"/>
<path d="M86.8013 140.439H80.1687V147.072H86.8013V140.439Z" fill="#FFCCE4"/>
<path d="M86.8013 113.62H80.1687V120.252H86.8013V113.62Z" fill="#FFCCE4"/>
<path d="M86.8013 -0.000244141H80.1687V6.63242H86.8013V-0.000244141Z" fill="#40BBFF"/>
<path d="M80.0243 140.439H73.3916V147.072H80.0243V140.439Z" fill="#FFCCE4"/>
<path d="M80.0243 113.62H73.3916V120.252H80.0243V113.62Z" fill="#FFCCE4"/>
<path d="M80.0243 -0.000244141H73.3916V6.63242H80.0243V-0.000244141Z" fill="#40BBFF"/>
<path d="M73.3915 140.439H66.7588V147.072H73.3915V140.439Z" fill="#FFCCE4"/>
<path d="M73.3915 -0.000244141H66.7588V6.63242H73.3915V-0.000244141Z" fill="#69EDFF"/>
<path d="M66.7586 140.439H60.126V147.072H66.7586V140.439Z" fill="#FFCCE4"/>
<path d="M66.7586 -0.000244141H60.126V6.63242H66.7586V-0.000244141Z" fill="#69EDFF"/>
<path d="M59.9823 133.662H53.3496V140.295H59.9823V133.662Z" fill="#FFCCE4"/>
<path d="M59.9823 33.4515H53.3496V40.0842H59.9823V33.4515Z" fill="#FFCCE4"/>
<path d="M59.9823 6.6322H53.3496V13.2648H59.9823V6.6322Z" fill="#69EDFF"/>
<path d="M53.3495 133.662H46.7168V140.295H53.3495V133.662Z" fill="#FFCCE4"/>
<path d="M53.3495 33.4515H46.7168V40.0842H53.3495V33.4515Z" fill="#F1F4CE"/>
<path d="M53.3495 6.6322H46.7168V13.2648H53.3495V6.6322Z" fill="#BBE4FF"/>
<path d="M46.7166 133.662H40.084V140.295H46.7166V133.662Z" fill="#FFCCE4"/>
<path d="M46.7166 40.0839H40.084V46.7165H46.7166V40.0839Z" fill="#F1F4CE"/>
<path d="M46.7166 6.6322H40.084V13.2648H46.7166V6.6322Z" fill="#BBE4FF"/>
<path d="M39.9402 127.029H33.3076V133.662H39.9402V127.029Z" fill="#FFD6C2"/>
<path d="M39.9402 46.7163H33.3076V53.349H39.9402V46.7163Z" fill="#BBE4FF"/>
<path d="M39.9402 13.4086H33.3076V20.0412H39.9402V13.4086Z" fill="#CDF7F0"/>
<path d="M33.3075 127.029H26.6748V133.662H33.3075V127.029Z" fill="#FFD6C2"/>
<path d="M33.3075 53.4939H26.6748V60.1265H33.3075V53.4939Z" fill="#BBE4FF"/>
<path d="M33.3075 13.4086H26.6748V20.0412H33.3075V13.4086Z" fill="#F1F4CE"/>
<path d="M26.6747 120.253H20.042V126.885H26.6747V120.253Z" fill="#FFD6C2"/>
<path d="M26.6747 20.0415H20.042V26.6742H26.6747V20.0415Z" fill="#F1F4CE"/>
<path d="M19.8975 113.62H13.2649V120.252H19.8975V113.62Z" fill="#FFD6C2"/>
<path d="M19.8975 26.6746H13.2649V33.3072H19.8975V26.6746Z" fill="#CDF7F0"/>
<path d="M13.2655 106.988H6.63281V113.621H13.2655V106.988Z" fill="#F1F4CE"/>
<path d="M13.2655 100.21H6.63281V106.843H13.2655V100.21Z" fill="#F1F4CE"/>
<path d="M13.2655 40.0839H6.63281V46.7165H13.2655V40.0839Z" fill="#BBE4FF"/>
<path d="M13.2655 33.4515H6.63281V40.0842H13.2655V33.4515Z" fill="#CDF7F0"/>
<path d="M6.63264 93.5774H0V100.21H6.63264V93.5774Z" fill="#F1F4CE"/>
<path d="M6.63264 86.9443H0V93.577H6.63264V86.9443Z" fill="#F1F4CE"/>
<path d="M6.63264 80.1686H0V86.8012H6.63264V80.1686Z" fill="#40BBFF"/>
<path d="M6.63264 73.5356H0V80.1683H6.63264V73.5356Z" fill="#40BBFF"/>
<path d="M6.63264 66.9026H0V73.5353H6.63264V66.9026Z" fill="#69EDFF"/>
<path d="M6.63264 60.1262H0V66.7589H6.63264V60.1262Z" fill="#69EDFF"/>
<path d="M6.63264 53.4939H0V60.1265H6.63264V53.4939Z" fill="#69EDFF"/>
<path d="M6.63264 46.7163H0V53.349H6.63264V46.7163Z" fill="#BBE4FF"/>
</svg>
