<svg width="133" height="166" viewBox="0 0 133 166" fill="none" xmlns="http://www.w3.org/2000/svg">
<path d="M66.176 7.16308L61.2295 6.20801L58.3564 21.0885L63.3028 22.0435L66.176 7.16308Z" fill="#333333"/>
<path d="M84.8134 19.4913L72.2883 27.9873L75.1088 32.1699L87.6339 23.6739L84.8134 19.4913Z" fill="#333333"/>
<path d="M92.1034 45.6118L77.2639 42.7466L76.3062 47.7066L91.1457 50.5718L92.1034 45.6118Z" fill="#333333"/>
<path d="M39.3424 10.712L35.1675 13.5439L43.6293 26.0921L47.8042 23.2602L39.3424 10.712Z" fill="#333333"/>
<path d="M37.6915 35.106L22.8516 32.2407L21.8939 37.2007L36.7338 40.066L37.6915 35.106Z" fill="#333333"/>
<path d="M38.8888 50.6427L26.3638 59.1387L29.1843 63.3213L41.7093 54.8253L38.8888 50.6427Z" fill="#333333"/>
<path d="M27.2872 89.8249L22.249 89.7932L22.1756 99.8952L27.2138 99.9269L27.2872 89.8249Z" fill="#333333"/>
<path d="M32.2521 99.9589L27.2139 99.9272L27.1772 104.978L32.2154 105.01L32.2521 99.9589Z" fill="#333333"/>
<path d="M108.009 75.179L102.971 75.1473L102.934 80.1983L107.972 80.23L108.009 75.179Z" fill="#333333"/>
<path d="M77.8495 64.8906L77.6639 90.1462L82.7025 90.178L82.8507 69.9737L92.9273 70.0377L92.964 64.9868L77.8495 64.8906Z" fill="#333333"/>
<path d="M67.8096 59.7755L67.9578 39.5712L62.9197 39.5395L62.9566 34.4881L52.88 34.424L52.8431 39.4754L62.9197 39.5395L62.5492 90.0498L67.5872 90.082L67.7727 64.8269L77.8494 64.8905L77.8862 59.8396L67.8096 59.7755Z" fill="#333333"/>
<path d="M47.4341 89.9541L42.396 89.9223L42.3592 94.9732L47.3972 95.0054L47.2864 110.158L52.3244 110.191L52.8432 39.4755L47.8047 39.4432L47.4341 89.9541Z" fill="#333333"/>
<path d="M42.4386 84.8692L27.324 84.7742L27.2873 89.8252L42.4019 89.9202L42.4386 84.8692Z" fill="#333333"/>
<path d="M37.2465 105.044L32.2085 105.011L32.1344 115.113L37.1724 115.146L37.2465 105.044Z" fill="#333333"/>
<path d="M47.1751 125.311L42.137 125.28L42.2111 115.177L37.1725 115.146L37.0984 125.248L42.137 125.28L42.0629 135.382L47.1009 135.414L47.175 125.312L47.1751 125.311Z" fill="#333333"/>
<path d="M52.1476 135.443L47.1094 135.411L47.0727 140.462L52.1109 140.494L52.1476 135.443Z" fill="#333333"/>
<path d="M92.9271 70.0377L92.7789 90.242L97.8169 90.2742L97.9284 75.1208L102.966 75.153L103.004 70.1017L92.9271 70.0377Z" fill="#333333"/>
<path d="M113.01 80.2613L107.972 80.2296L107.679 120.638L112.717 120.67L113.01 80.2613Z" fill="#333333"/>
<path d="M102.522 135.766L97.4837 135.734L97.3728 150.887L57.0664 150.631L57.1405 140.529L52.102 140.497L51.991 155.65L102.374 155.97L102.522 135.766L107.56 135.798L107.672 120.645L102.633 120.613L102.522 135.766Z" fill="#333333"/>
<path d="M27.2816 89.8258L42.3962 89.9221L42.3594 94.973L47.3974 95.0052L47.2865 110.158L52.3245 110.19L52.8433 39.4753L62.9199 39.5394L62.5494 90.0497L67.5874 90.0819L67.7729 64.8268L77.8496 64.8904L77.664 90.146L82.7026 90.1778L82.8508 69.9735L92.9274 70.0375L92.7792 90.2419L97.8172 90.2741L97.9287 75.1206L102.967 75.1529L102.93 80.2038L107.968 80.236L107.672 120.645L102.633 120.612L102.522 135.766L97.484 135.734L97.3731 150.887L57.0667 150.631L57.1408 140.529L52.1023 140.496L52.1395 135.446L47.101 135.413L47.1751 125.311L42.1371 125.279L42.2112 115.177L37.1726 115.145L37.2467 105.043L32.2087 105.011L32.2455 99.9602L27.2075 99.928L27.2816 89.8258Z" fill="#E8C8AF"/>
</svg>
