<svg width="131" height="165" viewBox="0 0 131 165" fill="none" xmlns="http://www.w3.org/2000/svg">
<path d="M26.36 89.8249L21.3218 89.7932L21.2484 99.8952L26.2866 99.9269L26.36 89.8249Z" fill="#333333"/>
<path d="M31.3248 99.9589L26.2866 99.9272L26.2499 104.978L31.2881 105.01L31.3248 99.9589Z" fill="#333333"/>
<path d="M107.082 75.179L102.043 75.1473L102.007 80.1983L107.045 80.23L107.082 75.179Z" fill="#333333"/>
<path d="M76.9222 64.8906L76.7366 90.1462L81.7752 90.178L81.9234 69.9737L92 70.0377L92.0368 64.9868L76.9222 64.8906Z" fill="#333333"/>
<path d="M66.8823 59.7756L67.0306 39.5713L61.9925 39.5395L62.0293 34.4881L51.9527 34.4241L51.9159 39.4755L61.9925 39.5395L61.622 90.0499L66.66 90.0821L66.8455 64.827L76.9222 64.8905L76.9589 59.8397L66.8823 59.7756Z" fill="#333333"/>
<path d="M46.5069 89.9541L41.4688 89.9223L41.432 94.9732L46.47 95.0054L46.3591 110.158L51.3971 110.191L51.9159 39.4755L46.8774 39.4432L46.5069 89.9541Z" fill="#333333"/>
<path d="M41.5114 84.8691L26.3967 84.7741L26.36 89.8251L41.4747 89.9201L41.5114 84.8691Z" fill="#333333"/>
<path d="M36.3192 105.044L31.2812 105.011L31.2071 115.113L36.2451 115.146L36.3192 105.044Z" fill="#333333"/>
<path d="M46.2478 125.311L41.2097 125.28L41.2838 115.178L36.2452 115.146L36.1711 125.248L41.2097 125.28L41.1356 135.382L46.1737 135.414L46.2477 125.312L46.2478 125.311Z" fill="#333333"/>
<path d="M51.2203 135.442L46.1821 135.411L46.1454 140.462L51.1836 140.493L51.2203 135.442Z" fill="#333333"/>
<path d="M91.9999 70.0377L91.8516 90.242L96.8896 90.2742L97.0011 75.1208L102.039 75.153L102.076 70.1017L91.9999 70.0377Z" fill="#333333"/>
<path d="M112.083 80.2613L107.045 80.2296L106.751 120.638L111.79 120.67L112.083 80.2613Z" fill="#333333"/>
<path d="M101.595 135.766L96.5564 135.734L96.4456 150.887L56.1391 150.631L56.2132 140.529L51.1747 140.497L51.0638 155.65L101.447 155.97L101.595 135.766L106.633 135.798L106.744 120.645L101.706 120.613L101.595 135.766Z" fill="#333333"/>
<path d="M26.3543 89.8258L41.4689 89.9221L41.4322 94.973L46.4701 95.0052L46.3593 110.158L51.3973 110.19L51.9161 39.4753L61.9927 39.5394L61.6222 90.0497L66.6602 90.0819L66.8457 64.8268L76.9224 64.8904L76.7368 90.146L81.7754 90.1778L81.9236 69.9735L92.0002 70.0375L91.852 90.2419L96.8899 90.2741L97.0014 75.1206L102.039 75.1529L102.003 80.2038L107.041 80.236L106.745 120.645L101.706 120.612L101.595 135.766L96.5567 135.734L96.4459 150.887L56.1394 150.631L56.2135 140.529L51.175 140.496L51.2123 135.446L46.1738 135.413L46.2479 125.311L41.2098 125.279L41.2839 115.177L36.2453 115.145L36.3194 105.043L31.2814 105.011L31.3182 99.9602L26.2802 99.928L26.3543 89.8258Z" fill="#E8C8AF"/>
</svg>
