<svg width="69" height="67" viewBox="0 0 69 67" fill="none" xmlns="http://www.w3.org/2000/svg">
<path d="M68.9226 38.9692H65.3252V42.4627H68.9226V38.9692Z" fill="#3B3149"/>
<path d="M68.9226 35.4751H65.3252V38.969H68.9226V35.4751Z" fill="#3B3149"/>
<path d="M68.9226 31.9817H65.3252V35.4751H68.9226V31.9817Z" fill="#3B3149"/>
<path d="M68.9226 28.4883H65.3252V31.9817H68.9226V28.4883Z" fill="#3B3149"/>
<path d="M68.9226 24.9944H65.3252V28.4883H68.9226V24.9944Z" fill="#3B3149"/>
<path d="M65.325 45.9558H61.7275V49.4497H65.325V45.9558Z" fill="#3B3149"/>
<path d="M65.325 42.4624H61.7275V45.9558H65.325V42.4624Z" fill="#3B3149"/>
<path d="M65.325 38.9692H61.7275V42.4627H65.325V38.9692Z" fill="#3B3149"/>
<path d="M65.325 35.4751H61.7275V38.969H65.325V35.4751Z" fill="#3B3149"/>
<path d="M65.325 31.9817H61.7275V35.4751H65.325V31.9817Z" fill="#3B3149"/>
<path d="M65.325 28.4883H61.7275V31.9817H65.325V28.4883Z" fill="#3B3149"/>
<path d="M65.325 24.9944H61.7275V28.4883H65.325V24.9944Z" fill="#3B3149"/>
<path d="M65.325 21.501H61.7275V24.9944H65.325V21.501Z" fill="#3B3149"/>
<path d="M65.325 18.0076H61.7275V21.501H65.325V18.0076Z" fill="#3B3149"/>
<path d="M61.7278 49.45H58.1304V52.9434H61.7278V49.45Z" fill="#3B3149"/>
<path d="M61.7278 45.9558H58.1304V49.4497H61.7278V45.9558Z" fill="#3B3149"/>
<path d="M61.7278 42.4624H58.1304V45.9558H61.7278V42.4624Z" fill="#3B3149"/>
<path d="M61.7278 38.9692H58.1304V42.4627H61.7278V38.9692Z" fill="#3B3149"/>
<path d="M61.7278 35.4751H58.1304V38.969H61.7278V35.4751Z" fill="#3B3149"/>
<path d="M61.7278 31.9817H58.1304V35.4751H61.7278V31.9817Z" fill="#3B3149"/>
<path d="M61.7278 28.4883H58.1304V31.9817H61.7278V28.4883Z" fill="#3B3149"/>
<path d="M61.7278 24.9944H58.1304V28.4883H61.7278V24.9944Z" fill="#3B3149"/>
<path d="M61.7278 21.501H58.1304V24.9944H61.7278V21.501Z" fill="#3B3149"/>
<path d="M61.7278 18.0076H58.1304V21.501H61.7278V18.0076Z" fill="#3B3149"/>
<path d="M61.7278 14.5139H58.1304V18.0073H61.7278V14.5139Z" fill="#3B3149"/>
<path d="M58.1302 52.9431H54.5332V56.4365H58.1302V52.9431Z" fill="#3B3149"/>
<path d="M58.1302 49.45H54.5332V52.9434H58.1302V49.45Z" fill="#3B3149"/>
<path d="M58.1302 45.9558H54.5332V49.4497H58.1302V45.9558Z" fill="#3B3149"/>
<path d="M58.1302 42.4624H54.5332V45.9558H58.1302V42.4624Z" fill="#3B3149"/>
<path d="M58.1302 38.9692H54.5332V42.4627H58.1302V38.9692Z" fill="#3B3149"/>
<path d="M58.1302 35.4751H54.5332V38.969H58.1302V35.4751Z" fill="#3B3149"/>
<path d="M58.1302 31.9817H54.5332V35.4751H58.1302V31.9817Z" fill="#3B3149"/>
<path d="M58.1302 28.4883H54.5332V31.9817H58.1302V28.4883Z" fill="#3B3149"/>
<path d="M58.1302 24.9944H54.5332V28.4883H58.1302V24.9944Z" fill="#3B3149"/>
<path d="M58.1302 21.501H54.5332V24.9944H58.1302V21.501Z" fill="#3B3149"/>
<path d="M58.1302 18.0076H54.5332V21.501H58.1302V18.0076Z" fill="#3B3149"/>
<path d="M58.1302 14.5139H54.5332V18.0073H58.1302V14.5139Z" fill="#3B3149"/>
<path d="M58.1302 11.0203H54.5332V14.5141H58.1302V11.0203Z" fill="#3B3149"/>
<path d="M54.533 56.4365H50.9355V59.9304H54.533V56.4365Z" fill="#3B3149"/>
<path d="M54.533 52.9431H50.9355V56.4365H54.533V52.9431Z" fill="#3B3149"/>
<path d="M54.533 49.45H50.9355V52.9434H54.533V49.45Z" fill="#3B3149"/>
<path d="M54.533 45.9558H50.9355V49.4497H54.533V45.9558Z" fill="#3B3149"/>
<path d="M54.533 42.4624H50.9355V45.9558H54.533V42.4624Z" fill="#3B3149"/>
<path d="M54.533 38.9692H50.9355V42.4627H54.533V38.9692Z" fill="#3B3149"/>
<path d="M54.533 35.4751H50.9355V38.969H54.533V35.4751Z" fill="#3B3149"/>
<path d="M54.533 31.9817H50.9355V35.4751H54.533V31.9817Z" fill="#3B3149"/>
<path d="M54.533 28.4883H50.9355V31.9817H54.533V28.4883Z" fill="#3B3149"/>
<path d="M54.533 24.9944H50.9355V28.4883H54.533V24.9944Z" fill="#3B3149"/>
<path d="M54.533 21.501H50.9355V24.9944H54.533V21.501Z" fill="#3B3149"/>
<path d="M54.533 18.0076H50.9355V21.501H54.533V18.0076Z" fill="#3B3149"/>
<path d="M54.533 14.5139H50.9355V18.0073H54.533V14.5139Z" fill="#3B3149"/>
<path d="M54.533 11.0203H50.9355V14.5141H54.533V11.0203Z" fill="#3B3149"/>
<path d="M54.533 7.52686H50.9355V11.0203H54.533V7.52686Z" fill="#3B3149"/>
<path d="M50.9358 59.9302H47.3384V63.4236H50.9358V59.9302Z" fill="#3B3149"/>
<path d="M50.9358 56.4365H47.3384V59.9304H50.9358V56.4365Z" fill="#3B3149"/>
<path d="M50.9358 52.9431H47.3384V56.4365H50.9358V52.9431Z" fill="#3B3149"/>
<path d="M50.9358 49.45H47.3384V52.9434H50.9358V49.45Z" fill="#3B3149"/>
<path d="M50.9358 45.9558H47.3384V49.4497H50.9358V45.9558Z" fill="#3B3149"/>
<path d="M50.9358 42.4624H47.3384V45.9558H50.9358V42.4624Z" fill="#3B3149"/>
<path d="M50.9358 38.9692H47.3384V42.4627H50.9358V38.9692Z" fill="#3B3149"/>
<path d="M50.9358 35.4751H47.3384V38.969H50.9358V35.4751Z" fill="#3B3149"/>
<path d="M50.9358 31.9817H47.3384V35.4751H50.9358V31.9817Z" fill="#3B3149"/>
<path d="M50.9358 28.4883H47.3384V31.9817H50.9358V28.4883Z" fill="#3B3149"/>
<path d="M50.9358 24.9944H47.3384V28.4883H50.9358V24.9944Z" fill="#3B3149"/>
<path d="M50.9358 21.501H47.3384V24.9944H50.9358V21.501Z" fill="#3B3149"/>
<path d="M50.9358 18.0076H47.3384V21.501H50.9358V18.0076Z" fill="#3B3149"/>
<path d="M50.9358 14.5139H47.3384V18.0073H50.9358V14.5139Z" fill="#3B3149"/>
<path d="M50.9358 11.0203H47.3384V14.5141H50.9358V11.0203Z" fill="#3B3149"/>
<path d="M50.9358 7.52686H47.3384V11.0203H50.9358V7.52686Z" fill="#3B3149"/>
<path d="M50.9358 4.03369H47.3384V7.52711H50.9358V4.03369Z" fill="#3B3149"/>
<path d="M47.3381 59.9302H43.7407V63.4236H47.3381V59.9302Z" fill="#3B3149"/>
<path d="M47.3381 56.4365H43.7407V59.9304H47.3381V56.4365Z" fill="#3B3149"/>
<path d="M47.3381 52.9431H43.7407V56.4365H47.3381V52.9431Z" fill="#3B3149"/>
<path d="M47.3381 49.45H43.7407V52.9434H47.3381V49.45Z" fill="#3B3149"/>
<path d="M47.3381 45.9558H43.7407V49.4497H47.3381V45.9558Z" fill="#3B3149"/>
<path d="M47.3381 42.4624H43.7407V45.9558H47.3381V42.4624Z" fill="#3B3149"/>
<path d="M47.3381 38.9692H43.7407V42.4627H47.3381V38.9692Z" fill="#3B3149"/>
<path d="M47.3381 35.4751H43.7407V38.969H47.3381V35.4751Z" fill="#3B3149"/>
<path d="M47.3381 31.9817H43.7407V35.4751H47.3381V31.9817Z" fill="#3B3149"/>
<path d="M47.3381 28.4883H43.7407V31.9817H47.3381V28.4883Z" fill="#3B3149"/>
<path d="M47.3381 24.9944H43.7407V28.4883H47.3381V24.9944Z" fill="#3B3149"/>
<path d="M47.3381 21.501H43.7407V24.9944H47.3381V21.501Z" fill="#3B3149"/>
<path d="M47.3381 18.0076H43.7407V21.501H47.3381V18.0076Z" fill="#3B3149"/>
<path d="M47.3381 14.5139H43.7407V18.0073H47.3381V14.5139Z" fill="#3B3149"/>
<path d="M47.3381 11.0203H43.7407V14.5141H47.3381V11.0203Z" fill="#3B3149"/>
<path d="M47.3381 7.52686H43.7407V11.0203H47.3381V7.52686Z" fill="#3B3149"/>
<path d="M47.3381 4.03369H43.7407V7.52711H47.3381V4.03369Z" fill="#3B3149"/>
<path d="M43.741 63.4238H40.144V66.9173H43.741V63.4238Z" fill="#3B3149"/>
<path d="M43.741 59.9302H40.144V63.4236H43.741V59.9302Z" fill="#3B3149"/>
<path d="M43.741 56.4365H40.144V59.9304H43.741V56.4365Z" fill="#3B3149"/>
<path d="M43.741 52.9431H40.144V56.4365H43.741V52.9431Z" fill="#3B3149"/>
<path d="M43.741 49.45H40.144V52.9434H43.741V49.45Z" fill="#3B3149"/>
<path d="M43.741 45.9558H40.144V49.4497H43.741V45.9558Z" fill="#3B3149"/>
<path d="M43.741 42.4624H40.144V45.9558H43.741V42.4624Z" fill="#3B3149"/>
<path d="M43.741 38.9692H40.144V42.4627H43.741V38.9692Z" fill="#3B3149"/>
<path d="M43.741 35.4751H40.144V38.969H43.741V35.4751Z" fill="#3B3149"/>
<path d="M43.741 31.9817H40.144V35.4751H43.741V31.9817Z" fill="#3B3149"/>
<path d="M43.741 28.4883H40.144V31.9817H43.741V28.4883Z" fill="#3B3149"/>
<path d="M43.741 24.9944H40.144V28.4883H43.741V24.9944Z" fill="#3B3149"/>
<path d="M43.741 21.501H40.144V24.9944H43.741V21.501Z" fill="#3B3149"/>
<path d="M43.741 18.0076H40.144V21.501H43.741V18.0076Z" fill="#3B3149"/>
<path d="M43.741 14.5139H40.144V18.0073H43.741V14.5139Z" fill="#3B3149"/>
<path d="M43.741 11.0203H40.144V14.5141H43.741V11.0203Z" fill="#3B3149"/>
<path d="M43.741 7.52686H40.144V11.0203H43.741V7.52686Z" fill="#3B3149"/>
<path d="M43.741 4.03369H40.144V7.52711H43.741V4.03369Z" fill="#3B3149"/>
<path d="M43.741 0.539551H40.144V4.03343H43.741V0.539551Z" fill="#3B3149"/>
<path d="M40.1438 63.4238H36.5464V66.9173H40.1438V63.4238Z" fill="#3B3149"/>
<path d="M40.1438 59.9302H36.5464V63.4236H40.1438V59.9302Z" fill="#3B3149"/>
<path d="M40.1438 56.4365H36.5464V59.9304H40.1438V56.4365Z" fill="#3B3149"/>
<path d="M40.1438 52.9431H36.5464V56.4365H40.1438V52.9431Z" fill="#3B3149"/>
<path d="M40.1438 49.45H36.5464V52.9434H40.1438V49.45Z" fill="#3B3149"/>
<path d="M40.1438 45.9558H36.5464V49.4497H40.1438V45.9558Z" fill="#3B3149"/>
<path d="M40.1438 42.4624H36.5464V45.9558H40.1438V42.4624Z" fill="#3B3149"/>
<path d="M40.1438 38.9692H36.5464V42.4627H40.1438V38.9692Z" fill="#3B3149"/>
<path d="M40.1438 35.4751H36.5464V38.969H40.1438V35.4751Z" fill="#3B3149"/>
<path d="M40.1438 31.9817H36.5464V35.4751H40.1438V31.9817Z" fill="#3B3149"/>
<path d="M40.1438 28.4883H36.5464V31.9817H40.1438V28.4883Z" fill="#3B3149"/>
<path d="M40.1438 24.9944H36.5464V28.4883H40.1438V24.9944Z" fill="#3B3149"/>
<path d="M40.1438 21.501H36.5464V24.9944H40.1438V21.501Z" fill="#3B3149"/>
<path d="M40.1438 18.0076H36.5464V21.501H40.1438V18.0076Z" fill="#3B3149"/>
<path d="M40.1438 14.5139H36.5464V18.0073H40.1438V14.5139Z" fill="#3B3149"/>
<path d="M40.1438 11.0203H36.5464V14.5141H40.1438V11.0203Z" fill="#3B3149"/>
<path d="M40.1438 7.52686H36.5464V11.0203H40.1438V7.52686Z" fill="#3B3149"/>
<path d="M40.1438 4.03369H36.5464V7.52711H40.1438V4.03369Z" fill="#3B3149"/>
<path d="M40.1438 0.539551H36.5464V4.03343H40.1438V0.539551Z" fill="#3B3149"/>
<path d="M36.5466 63.4238H32.9492V66.9173H36.5466V63.4238Z" fill="#3B3149"/>
<path d="M36.5466 59.9302H32.9492V63.4236H36.5466V59.9302Z" fill="#3B3149"/>
<path d="M36.5466 56.4365H32.9492V59.9304H36.5466V56.4365Z" fill="#3B3149"/>
<path d="M36.5466 52.9431H32.9492V56.4365H36.5466V52.9431Z" fill="#3B3149"/>
<path d="M36.5466 49.45H32.9492V52.9434H36.5466V49.45Z" fill="#3B3149"/>
<path d="M36.5466 45.9558H32.9492V49.4497H36.5466V45.9558Z" fill="#3B3149"/>
<path d="M36.5466 42.4624H32.9492V45.9558H36.5466V42.4624Z" fill="#3B3149"/>
<path d="M36.5466 38.9692H32.9492V42.4627H36.5466V38.9692Z" fill="#3B3149"/>
<path d="M36.5466 35.4751H32.9492V38.969H36.5466V35.4751Z" fill="#3B3149"/>
<path d="M36.5466 31.9817H32.9492V35.4751H36.5466V31.9817Z" fill="#3B3149"/>
<path d="M36.5466 28.4883H32.9492V31.9817H36.5466V28.4883Z" fill="#3B3149"/>
<path d="M36.5466 24.9944H32.9492V28.4883H36.5466V24.9944Z" fill="#3B3149"/>
<path d="M36.5466 21.501H32.9492V24.9944H36.5466V21.501Z" fill="#3B3149"/>
<path d="M36.5466 18.0076H32.9492V21.501H36.5466V18.0076Z" fill="#3B3149"/>
<path d="M36.5466 14.5139H32.9492V18.0073H36.5466V14.5139Z" fill="#3B3149"/>
<path d="M36.5466 11.0203H32.9492V14.5141H36.5466V11.0203Z" fill="#3B3149"/>
<path d="M36.5466 7.52686H32.9492V11.0203H36.5466V7.52686Z" fill="#3B3149"/>
<path d="M36.5466 4.03369H32.9492V7.52711H36.5466V4.03369Z" fill="#3B3149"/>
<path d="M36.5466 0.539551H32.9492V4.03343H36.5466V0.539551Z" fill="#3B3149"/>
<path d="M32.949 63.4238H29.3516V66.9173H32.949V63.4238Z" fill="#3B3149"/>
<path d="M32.949 59.9302H29.3516V63.4236H32.949V59.9302Z" fill="#3B3149"/>
<path d="M32.949 56.4365H29.3516V59.9304H32.949V56.4365Z" fill="#3B3149"/>
<path d="M32.949 52.9431H29.3516V56.4365H32.949V52.9431Z" fill="#3B3149"/>
<path d="M32.949 49.45H29.3516V52.9434H32.949V49.45Z" fill="#3B3149"/>
<path d="M32.949 45.9558H29.3516V49.4497H32.949V45.9558Z" fill="#3B3149"/>
<path d="M32.949 42.4624H29.3516V45.9558H32.949V42.4624Z" fill="#3B3149"/>
<path d="M32.949 38.9692H29.3516V42.4627H32.949V38.9692Z" fill="#3B3149"/>
<path d="M32.949 35.4751H29.3516V38.969H32.949V35.4751Z" fill="#3B3149"/>
<path d="M32.949 31.9817H29.3516V35.4751H32.949V31.9817Z" fill="#3B3149"/>
<path d="M32.949 28.4883H29.3516V31.9817H32.949V28.4883Z" fill="#3B3149"/>
<path d="M32.949 24.9944H29.3516V28.4883H32.949V24.9944Z" fill="#3B3149"/>
<path d="M32.949 21.501H29.3516V24.9944H32.949V21.501Z" fill="#3B3149"/>
<path d="M32.949 18.0076H29.3516V21.501H32.949V18.0076Z" fill="#3B3149"/>
<path d="M32.949 14.5139H29.3516V18.0073H32.949V14.5139Z" fill="#3B3149"/>
<path d="M32.949 11.0203H29.3516V14.5141H32.949V11.0203Z" fill="#3B3149"/>
<path d="M32.949 7.52686H29.3516V11.0203H32.949V7.52686Z" fill="#3B3149"/>
<path d="M32.949 4.03369H29.3516V7.52711H32.949V4.03369Z" fill="#3B3149"/>
<path d="M32.949 0.539551H29.3516V4.03343H32.949V0.539551Z" fill="#3B3149"/>
<path d="M29.3518 63.4238H25.7544V66.9173H29.3518V63.4238Z" fill="#3B3149"/>
<path d="M29.3518 59.9302H25.7544V63.4236H29.3518V59.9302Z" fill="#3B3149"/>
<path d="M29.3518 56.4365H25.7544V59.9304H29.3518V56.4365Z" fill="#3B3149"/>
<path d="M29.3518 52.9431H25.7544V56.4365H29.3518V52.9431Z" fill="#3B3149"/>
<path d="M29.3518 49.45H25.7544V52.9434H29.3518V49.45Z" fill="#3B3149"/>
<path d="M29.3518 45.9558H25.7544V49.4497H29.3518V45.9558Z" fill="#3B3149"/>
<path d="M29.3518 42.4624H25.7544V45.9558H29.3518V42.4624Z" fill="#3B3149"/>
<path d="M29.3518 38.9692H25.7544V42.4627H29.3518V38.9692Z" fill="#3B3149"/>
<path d="M29.3518 35.4751H25.7544V38.969H29.3518V35.4751Z" fill="#3B3149"/>
<path d="M29.3518 31.9817H25.7544V35.4751H29.3518V31.9817Z" fill="#3B3149"/>
<path d="M29.3518 28.4883H25.7544V31.9817H29.3518V28.4883Z" fill="#3B3149"/>
<path d="M29.3518 24.9944H25.7544V28.4883H29.3518V24.9944Z" fill="#3B3149"/>
<path d="M29.3518 21.501H25.7544V24.9944H29.3518V21.501Z" fill="#3B3149"/>
<path d="M29.3518 18.0076H25.7544V21.501H29.3518V18.0076Z" fill="#3B3149"/>
<path d="M29.3518 14.5139H25.7544V18.0073H29.3518V14.5139Z" fill="#3B3149"/>
<path d="M29.3518 11.0203H25.7544V14.5141H29.3518V11.0203Z" fill="#3B3149"/>
<path d="M29.3518 7.52686H25.7544V11.0203H29.3518V7.52686Z" fill="#3B3149"/>
<path d="M29.3518 4.03369H25.7544V7.52711H29.3518V4.03369Z" fill="#3B3149"/>
<path d="M29.3518 0.539551H25.7544V4.03343H29.3518V0.539551Z" fill="#3B3149"/>
<path d="M25.7542 59.9302H22.1572V63.4236H25.7542V59.9302Z" fill="#3B3149"/>
<path d="M25.7542 56.4365H22.1572V59.9304H25.7542V56.4365Z" fill="#3B3149"/>
<path d="M25.7542 52.9431H22.1572V56.4365H25.7542V52.9431Z" fill="#3B3149"/>
<path d="M25.7542 49.45H22.1572V52.9434H25.7542V49.45Z" fill="#3B3149"/>
<path d="M25.7542 45.9558H22.1572V49.4497H25.7542V45.9558Z" fill="#3B3149"/>
<path d="M25.7542 42.4624H22.1572V45.9558H25.7542V42.4624Z" fill="#3B3149"/>
<path d="M25.7542 38.9692H22.1572V42.4627H25.7542V38.9692Z" fill="#3B3149"/>
<path d="M25.7542 35.4751H22.1572V38.969H25.7542V35.4751Z" fill="#3B3149"/>
<path d="M25.7542 31.9817H22.1572V35.4751H25.7542V31.9817Z" fill="#3B3149"/>
<path d="M25.7542 28.4883H22.1572V31.9817H25.7542V28.4883Z" fill="#3B3149"/>
<path d="M25.7542 24.9944H22.1572V28.4883H25.7542V24.9944Z" fill="#3B3149"/>
<path d="M25.7542 21.501H22.1572V24.9944H25.7542V21.501Z" fill="#3B3149"/>
<path d="M25.7542 18.0076H22.1572V21.501H25.7542V18.0076Z" fill="#3B3149"/>
<path d="M25.7542 14.5139H22.1572V18.0073H25.7542V14.5139Z" fill="#3B3149"/>
<path d="M25.7542 11.0203H22.1572V14.5141H25.7542V11.0203Z" fill="#3B3149"/>
<path d="M25.7542 7.52686H22.1572V11.0203H25.7542V7.52686Z" fill="#3B3149"/>
<path d="M25.7542 4.03369H22.1572V7.52711H25.7542V4.03369Z" fill="#3B3149"/>
<path d="M22.1575 59.9302H18.5601V63.4236H22.1575V59.9302Z" fill="#3B3149"/>
<path d="M22.1575 56.4365H18.5601V59.9304H22.1575V56.4365Z" fill="#3B3149"/>
<path d="M22.1575 52.9431H18.5601V56.4365H22.1575V52.9431Z" fill="#3B3149"/>
<path d="M22.1575 49.45H18.5601V52.9434H22.1575V49.45Z" fill="#3B3149"/>
<path d="M22.1575 45.9558H18.5601V49.4497H22.1575V45.9558Z" fill="#3B3149"/>
<path d="M22.1575 42.4624H18.5601V45.9558H22.1575V42.4624Z" fill="#3B3149"/>
<path d="M22.1575 38.9692H18.5601V42.4627H22.1575V38.9692Z" fill="#3B3149"/>
<path d="M22.1575 35.4751H18.5601V38.969H22.1575V35.4751Z" fill="#3B3149"/>
<path d="M22.1575 31.9817H18.5601V35.4751H22.1575V31.9817Z" fill="#3B3149"/>
<path d="M22.1575 28.4883H18.5601V31.9817H22.1575V28.4883Z" fill="#3B3149"/>
<path d="M22.1575 24.9944H18.5601V28.4883H22.1575V24.9944Z" fill="#3B3149"/>
<path d="M22.1575 21.501H18.5601V24.9944H22.1575V21.501Z" fill="#3B3149"/>
<path d="M22.1575 18.0076H18.5601V21.501H22.1575V18.0076Z" fill="#3B3149"/>
<path d="M22.1575 14.5139H18.5601V18.0073H22.1575V14.5139Z" fill="#3B3149"/>
<path d="M22.1575 11.0203H18.5601V14.5141H22.1575V11.0203Z" fill="#3B3149"/>
<path d="M22.1575 7.52686H18.5601V11.0203H22.1575V7.52686Z" fill="#3B3149"/>
<path d="M22.1575 4.03369H18.5601V7.52711H22.1575V4.03369Z" fill="#3B3149"/>
<path d="M18.5598 56.4365H14.9624V59.9304H18.5598V56.4365Z" fill="#3B3149"/>
<path d="M18.5598 52.9431H14.9624V56.4365H18.5598V52.9431Z" fill="#3B3149"/>
<path d="M18.5598 49.45H14.9624V52.9434H18.5598V49.45Z" fill="#3B3149"/>
<path d="M18.5598 45.9558H14.9624V49.4497H18.5598V45.9558Z" fill="#3B3149"/>
<path d="M18.5598 42.4624H14.9624V45.9558H18.5598V42.4624Z" fill="#3B3149"/>
<path d="M18.5598 38.9692H14.9624V42.4627H18.5598V38.9692Z" fill="#3B3149"/>
<path d="M18.5598 35.4751H14.9624V38.969H18.5598V35.4751Z" fill="#3B3149"/>
<path d="M18.5598 31.9817H14.9624V35.4751H18.5598V31.9817Z" fill="#3B3149"/>
<path d="M18.5598 28.4883H14.9624V31.9817H18.5598V28.4883Z" fill="#3B3149"/>
<path d="M18.5598 24.9944H14.9624V28.4883H18.5598V24.9944Z" fill="#3B3149"/>
<path d="M18.5598 21.501H14.9624V24.9944H18.5598V21.501Z" fill="#3B3149"/>
<path d="M18.5598 18.0076H14.9624V21.501H18.5598V18.0076Z" fill="#3B3149"/>
<path d="M18.5598 14.5139H14.9624V18.0073H18.5598V14.5139Z" fill="#3B3149"/>
<path d="M18.5598 11.0203H14.9624V14.5141H18.5598V11.0203Z" fill="#3B3149"/>
<path d="M18.5598 7.52686H14.9624V11.0203H18.5598V7.52686Z" fill="#3B3149"/>
<path d="M14.9627 52.9431H11.3652V56.4365H14.9627V52.9431Z" fill="#3B3149"/>
<path d="M14.9627 49.45H11.3652V52.9434H14.9627V49.45Z" fill="#3B3149"/>
<path d="M14.9627 45.9558H11.3652V49.4497H14.9627V45.9558Z" fill="#3B3149"/>
<path d="M14.9627 42.4624H11.3652V45.9558H14.9627V42.4624Z" fill="#3B3149"/>
<path d="M14.9627 38.9692H11.3652V42.4627H14.9627V38.9692Z" fill="#3B3149"/>
<path d="M14.9627 35.4751H11.3652V38.969H14.9627V35.4751Z" fill="#3B3149"/>
<path d="M14.9627 31.9817H11.3652V35.4751H14.9627V31.9817Z" fill="#3B3149"/>
<path d="M14.9627 28.4883H11.3652V31.9817H14.9627V28.4883Z" fill="#3B3149"/>
<path d="M14.9627 24.9944H11.3652V28.4883H14.9627V24.9944Z" fill="#3B3149"/>
<path d="M14.9627 21.501H11.3652V24.9944H14.9627V21.501Z" fill="#3B3149"/>
<path d="M14.9627 18.0076H11.3652V21.501H14.9627V18.0076Z" fill="#3B3149"/>
<path d="M14.9627 14.5139H11.3652V18.0073H14.9627V14.5139Z" fill="#3B3149"/>
<path d="M14.9627 11.0203H11.3652V14.5141H14.9627V11.0203Z" fill="#3B3149"/>
<path d="M11.365 49.45H7.76758V52.9434H11.365V49.45Z" fill="#3B3149"/>
<path d="M11.365 45.9558H7.76758V49.4497H11.365V45.9558Z" fill="#3B3149"/>
<path d="M11.365 42.4624H7.76758V45.9558H11.365V42.4624Z" fill="#3B3149"/>
<path d="M11.365 38.9692H7.76758V42.4627H11.365V38.9692Z" fill="#3B3149"/>
<path d="M11.365 35.4751H7.76758V38.969H11.365V35.4751Z" fill="#3B3149"/>
<path d="M11.365 31.9817H7.76758V35.4751H11.365V31.9817Z" fill="#3B3149"/>
<path d="M11.365 28.4883H7.76758V31.9817H11.365V28.4883Z" fill="#3B3149"/>
<path d="M11.365 24.9944H7.76758V28.4883H11.365V24.9944Z" fill="#3B3149"/>
<path d="M11.365 21.501H7.76758V24.9944H11.365V21.501Z" fill="#3B3149"/>
<path d="M11.365 18.0076H7.76758V21.501H11.365V18.0076Z" fill="#3B3149"/>
<path d="M11.365 14.5139H7.76758V18.0073H11.365V14.5139Z" fill="#3B3149"/>
<path d="M7.76738 45.9558H4.17041V49.4497H7.76738V45.9558Z" fill="#3B3149"/>
<path d="M7.76738 42.4624H4.17041V45.9558H7.76738V42.4624Z" fill="#3B3149"/>
<path d="M7.76738 38.9692H4.17041V42.4627H7.76738V38.9692Z" fill="#3B3149"/>
<path d="M7.76738 35.4751H4.17041V38.969H7.76738V35.4751Z" fill="#3B3149"/>
<path d="M7.76738 31.9817H4.17041V35.4751H7.76738V31.9817Z" fill="#3B3149"/>
<path d="M7.76738 28.4883H4.17041V31.9817H7.76738V28.4883Z" fill="#3B3149"/>
<path d="M7.76738 24.9944H4.17041V28.4883H7.76738V24.9944Z" fill="#3B3149"/>
<path d="M7.76738 21.501H4.17041V24.9944H7.76738V21.501Z" fill="#3B3149"/>
<path d="M7.76738 18.0076H4.17041V21.501H7.76738V18.0076Z" fill="#3B3149"/>
<path d="M4.17067 38.9692H0.573242V42.4627H4.17067V38.9692Z" fill="#3B3149"/>
<path d="M4.17067 35.4751H0.573242V38.969H4.17067V35.4751Z" fill="#3B3149"/>
<path d="M4.17067 31.9817H0.573242V35.4751H4.17067V31.9817Z" fill="#3B3149"/>
<path d="M4.17067 28.4883H0.573242V31.9817H4.17067V28.4883Z" fill="#3B3149"/>
<path d="M4.17067 24.9944H0.573242V28.4883H4.17067V24.9944Z" fill="#3B3149"/>
<path d="M49.8249 32.6531H47.9243V34.5537H49.8249V32.6531Z" fill="white"/>
<path d="M49.8249 30.7112H47.9243V32.6118H49.8249V30.7112Z" fill="white"/>
<path d="M49.8249 28.8105H47.9243V30.7112H49.8249V28.8105Z" fill="white"/>
<path d="M49.8249 26.9099H47.9243V28.8105H49.8249V26.9099Z" fill="white"/>
<path d="M49.8249 24.968H47.9243V26.8686H49.8249V24.968Z" fill="white"/>
<path d="M49.8249 23.0679H47.9243V24.9685H49.8249V23.0679Z" fill="white"/>
<path d="M49.8249 21.1672H47.9243V23.0679H49.8249V21.1672Z" fill="white"/>
<path d="M47.9246 44.1396H46.0239V46.0403H47.9246V44.1396Z" fill="white"/>
<path d="M47.9246 42.239H46.0239V44.1396H47.9246V42.239Z" fill="white"/>
<path d="M47.9246 40.2971H46.0239V42.1977H47.9246V40.2971Z" fill="white"/>
<path d="M47.9246 38.3965H46.0239V40.2971H47.9246V38.3965Z" fill="white"/>
<path d="M47.9246 36.4958H46.0239V38.3965H47.9246V36.4958Z" fill="white"/>
<path d="M47.9246 34.5537H46.0239V36.4543H47.9246V34.5537Z" fill="white"/>
<path d="M47.9246 32.6531H46.0239V34.5537H47.9246V32.6531Z" fill="white"/>
<path d="M47.9246 30.7112H46.0239V32.6118H47.9246V30.7112Z" fill="white"/>
<path d="M47.9246 28.8105H46.0239V30.7112H47.9246V28.8105Z" fill="white"/>
<path d="M47.9246 26.9099H46.0239V28.8105H47.9246V26.9099Z" fill="white"/>
<path d="M47.9246 24.968H46.0239V26.8686H47.9246V24.968Z" fill="white"/>
<path d="M47.9246 23.0679H46.0239V24.9685H47.9246V23.0679Z" fill="white"/>
<path d="M47.9246 21.1672H46.0239V23.0679H47.9246V21.1672Z" fill="white"/>
<path d="M45.9827 47.9822H44.082V49.8828H45.9827V47.9822Z" fill="white"/>
<path d="M45.9827 46.0403H44.082V47.9409H45.9827V46.0403Z" fill="white"/>
<path d="M45.9827 44.1396H44.082V46.0403H45.9827V44.1396Z" fill="white"/>
<path d="M45.9827 42.239H44.082V44.1396H45.9827V42.239Z" fill="white"/>
<path d="M45.9827 40.2971H44.082V42.1977H45.9827V40.2971Z" fill="white"/>
<path d="M45.9827 38.3965H44.082V40.2971H45.9827V38.3965Z" fill="white"/>
<path d="M45.9827 36.4958H44.082V38.3965H45.9827V36.4958Z" fill="white"/>
<path d="M45.9827 34.5537H44.082V36.4543H45.9827V34.5537Z" fill="white"/>
<path d="M45.9827 32.6531H44.082V34.5537H45.9827V32.6531Z" fill="white"/>
<path d="M45.9827 30.7112H44.082V32.6118H45.9827V30.7112Z" fill="white"/>
<path d="M45.9827 28.8105H44.082V30.7112H45.9827V28.8105Z" fill="white"/>
<path d="M45.9827 26.9099H44.082V28.8105H45.9827V26.9099Z" fill="white"/>
<path d="M45.9827 24.968H44.082V26.8686H45.9827V24.968Z" fill="white"/>
<path d="M45.9827 23.0679H44.082V24.9685H45.9827V23.0679Z" fill="white"/>
<path d="M45.9827 21.1672H44.082V23.0679H45.9827V21.1672Z" fill="white"/>
<path d="M44.0818 49.8828H42.1812V51.7834H44.0818V49.8828Z" fill="white"/>
<path d="M44.0818 47.9822H42.1812V49.8828H44.0818V47.9822Z" fill="white"/>
<path d="M44.0818 46.0403H42.1812V47.9409H44.0818V46.0403Z" fill="white"/>
<path d="M44.0818 44.1396H42.1812V46.0403H44.0818V44.1396Z" fill="white"/>
<path d="M44.0818 42.239H42.1812V44.1396H44.0818V42.239Z" fill="white"/>
<path d="M44.0818 40.2971H42.1812V42.1977H44.0818V40.2971Z" fill="white"/>
<path d="M44.0818 38.3965H42.1812V40.2971H44.0818V38.3965Z" fill="white"/>
<path d="M44.0818 36.4958H42.1812V38.3965H44.0818V36.4958Z" fill="white"/>
<path d="M44.0818 34.5537H42.1812V36.4543H44.0818V34.5537Z" fill="white"/>
<path d="M44.0818 32.6531H42.1812V34.5537H44.0818V32.6531Z" fill="white"/>
<path d="M44.0818 30.7112H42.1812V32.6118H44.0818V30.7112Z" fill="white"/>
<path d="M44.0818 28.8105H42.1812V30.7112H44.0818V28.8105Z" fill="white"/>
<path d="M44.0818 26.9099H42.1812V28.8105H44.0818V26.9099Z" fill="white"/>
<path d="M44.0818 24.968H42.1812V26.8686H44.0818V24.968Z" fill="white"/>
<path d="M44.0818 23.0679H42.1812V24.9685H44.0818V23.0679Z" fill="white"/>
<path d="M44.0818 21.1672H42.1812V23.0679H44.0818V21.1672Z" fill="white"/>
<path d="M42.1814 49.8828H40.2808V51.7834H42.1814V49.8828Z" fill="white"/>
<path d="M42.1814 47.9822H40.2808V49.8828H42.1814V47.9822Z" fill="white"/>
<path d="M42.1814 46.0403H40.2808V47.9409H42.1814V46.0403Z" fill="white"/>
<path d="M42.1814 44.1396H40.2808V46.0403H42.1814V44.1396Z" fill="white"/>
<path d="M42.1814 42.239H40.2808V44.1396H42.1814V42.239Z" fill="white"/>
<path d="M42.1814 40.2971H40.2808V42.1977H42.1814V40.2971Z" fill="white"/>
<path d="M42.1814 38.3965H40.2808V40.2971H42.1814V38.3965Z" fill="white"/>
<path d="M42.1814 36.4958H40.2808V38.3965H42.1814V36.4958Z" fill="white"/>
<path d="M42.1814 34.5537H40.2808V36.4543H42.1814V34.5537Z" fill="white"/>
<path d="M42.1814 32.6531H40.2808V34.5537H42.1814V32.6531Z" fill="white"/>
<path d="M42.1814 30.7112H40.2808V32.6118H42.1814V30.7112Z" fill="white"/>
<path d="M42.1814 28.8105H40.2808V30.7112H42.1814V28.8105Z" fill="white"/>
<path d="M42.1814 26.9099H40.2808V28.8105H42.1814V26.9099Z" fill="white"/>
<path d="M42.1814 24.968H40.2808V26.8686H42.1814V24.968Z" fill="white"/>
<path d="M42.1814 23.0679H40.2808V24.9685H42.1814V23.0679Z" fill="white"/>
<path d="M40.2395 47.9822H38.3389V49.8828H40.2395V47.9822Z" fill="white"/>
<path d="M40.2395 46.0403H38.3389V47.9409H40.2395V46.0403Z" fill="white"/>
<path d="M40.2395 44.1396H38.3389V46.0403H40.2395V44.1396Z" fill="white"/>
<path d="M40.2395 42.239H38.3389V44.1396H40.2395V42.239Z" fill="white"/>
<path d="M40.2395 40.2971H38.3389V42.1977H40.2395V40.2971Z" fill="white"/>
<path d="M40.2395 38.3965H38.3389V40.2971H40.2395V38.3965Z" fill="white"/>
<path d="M40.2395 36.4958H38.3389V38.3965H40.2395V36.4958Z" fill="white"/>
<path d="M40.2395 34.5537H38.3389V36.4543H40.2395V34.5537Z" fill="white"/>
<path d="M40.2395 32.6531H38.3389V34.5537H40.2395V32.6531Z" fill="white"/>
<path d="M40.2395 30.7112H38.3389V32.6118H40.2395V30.7112Z" fill="white"/>
<path d="M40.2395 26.9099H38.3389V28.8105H40.2395V26.9099Z" fill="white"/>
<path d="M40.2395 24.968H38.3389V26.8686H40.2395V24.968Z" fill="white"/>
<path d="M40.2395 23.0679H38.3389V24.9685H40.2395V23.0679Z" fill="white"/>
<path d="M38.3386 46.0403H36.438V47.9409H38.3386V46.0403Z" fill="white"/>
<path d="M38.3386 44.1396H36.438V46.0403H38.3386V44.1396Z" fill="white"/>
<path d="M38.3386 42.239H36.438V44.1396H38.3386V42.239Z" fill="white"/>
<path d="M38.3386 40.2971H36.438V42.1977H38.3386V40.2971Z" fill="white"/>
<path d="M38.3386 38.3965H36.438V40.2971H38.3386V38.3965Z" fill="white"/>
<path d="M38.3386 36.4958H36.438V38.3965H38.3386V36.4958Z" fill="white"/>
<path d="M38.3386 34.5537H36.438V36.4543H38.3386V34.5537Z" fill="white"/>
<path d="M38.3386 32.6531H36.438V34.5537H38.3386V32.6531Z" fill="white"/>
<path d="M38.3386 28.8105H36.438V30.7112H38.3386V28.8105Z" fill="white"/>
<path d="M38.3386 26.9099H36.438V28.8105H38.3386V26.9099Z" fill="white"/>
<path d="M38.3386 24.968H36.438V26.8686H38.3386V24.968Z" fill="white"/>
<path d="M38.3386 23.0679H36.438V24.9685H38.3386V23.0679Z" fill="white"/>
<path d="M36.3967 46.0403H34.4961V47.9409H36.3967V46.0403Z" fill="white"/>
<path d="M36.3967 44.1396H34.4961V46.0403H36.3967V44.1396Z" fill="white"/>
<path d="M36.3967 42.239H34.4961V44.1396H36.3967V42.239Z" fill="white"/>
<path d="M36.3967 40.2971H34.4961V42.1977H36.3967V40.2971Z" fill="white"/>
<path d="M36.3967 38.3965H34.4961V40.2971H36.3967V38.3965Z" fill="white"/>
<path d="M36.3967 36.4958H34.4961V38.3965H36.3967V36.4958Z" fill="white"/>
<path d="M36.3967 34.5537H34.4961V36.4543H36.3967V34.5537Z" fill="white"/>
<path d="M36.3967 30.7112H34.4961V32.6118H36.3967V30.7112Z" fill="white"/>
<path d="M36.3967 28.8105H34.4961V30.7112H36.3967V28.8105Z" fill="white"/>
<path d="M36.3967 26.9099H34.4961V28.8105H36.3967V26.9099Z" fill="white"/>
<path d="M36.3967 24.968H34.4961V26.8686H36.3967V24.968Z" fill="white"/>
<path d="M34.4963 44.1396H32.5957V46.0403H34.4963V44.1396Z" fill="white"/>
<path d="M34.4963 42.239H32.5957V44.1396H34.4963V42.239Z" fill="white"/>
<path d="M34.4963 40.2971H32.5957V42.1977H34.4963V40.2971Z" fill="white"/>
<path d="M34.4963 38.3965H32.5957V40.2971H34.4963V38.3965Z" fill="white"/>
<path d="M34.4963 36.4958H32.5957V38.3965H34.4963V36.4958Z" fill="white"/>
<path d="M34.4963 32.6531H32.5957V34.5537H34.4963V32.6531Z" fill="white"/>
<path d="M34.4963 30.7112H32.5957V32.6118H34.4963V30.7112Z" fill="white"/>
<path d="M34.4963 28.8105H32.5957V30.7112H34.4963V28.8105Z" fill="white"/>
<path d="M34.4963 26.9099H32.5957V28.8105H34.4963V26.9099Z" fill="white"/>
<path d="M34.4963 24.968H32.5957V26.8686H34.4963V24.968Z" fill="white"/>
<path d="M32.5954 42.239H30.6948V44.1396H32.5954V42.239Z" fill="white"/>
<path d="M32.5954 40.2971H30.6948V42.1977H32.5954V40.2971Z" fill="white"/>
<path d="M32.5954 38.3965H30.6948V40.2971H32.5954V38.3965Z" fill="white"/>
<path d="M32.5954 32.6531H30.6948V34.5537H32.5954V32.6531Z" fill="white"/>
<path d="M32.5954 30.7112H30.6948V32.6118H32.5954V30.7112Z" fill="white"/>
<path d="M32.5954 28.8105H30.6948V30.7112H32.5954V28.8105Z" fill="white"/>
<path d="M32.5954 26.9099H30.6948V28.8105H32.5954V26.9099Z" fill="white"/>
<path d="M30.6536 42.239H28.7529V44.1396H30.6536V42.239Z" fill="white"/>
<path d="M30.6536 40.2971H28.7529V42.1977H30.6536V40.2971Z" fill="white"/>
<path d="M30.6536 34.5537H28.7529V36.4543H30.6536V34.5537Z" fill="white"/>
<path d="M30.6536 32.6531H28.7529V34.5537H30.6536V32.6531Z" fill="white"/>
<path d="M30.6536 30.7112H28.7529V32.6118H30.6536V30.7112Z" fill="white"/>
<path d="M30.6536 28.8105H28.7529V30.7112H30.6536V28.8105Z" fill="white"/>
<path d="M30.6536 26.9099H28.7529V28.8105H30.6536V26.9099Z" fill="white"/>
<path d="M28.7532 34.5537H26.8525V36.4543H28.7532V34.5537Z" fill="white"/>
<path d="M28.7532 32.6531H26.8525V34.5537H28.7532V32.6531Z" fill="white"/>
<path d="M28.7532 30.7112H26.8525V32.6118H28.7532V30.7112Z" fill="white"/>
<path d="M28.7532 28.8105H26.8525V30.7112H28.7532V28.8105Z" fill="white"/>
<path d="M28.7532 26.9099H26.8525V28.8105H28.7532V26.9099Z" fill="white"/>
<path d="M26.8523 36.4958H24.9517V38.3965H26.8523V36.4958Z" fill="white"/>
<path d="M26.8523 34.5537H24.9517V36.4543H26.8523V34.5537Z" fill="white"/>
<path d="M26.8523 32.6531H24.9517V34.5537H26.8523V32.6531Z" fill="white"/>
<path d="M26.8523 30.7112H24.9517V32.6118H26.8523V30.7112Z" fill="white"/>
<path d="M26.8523 28.8105H24.9517V30.7112H26.8523V28.8105Z" fill="white"/>
<path d="M24.9104 38.3965H23.0098V40.2971H24.9104V38.3965Z" fill="white"/>
<path d="M24.9104 36.4958H23.0098V38.3965H24.9104V36.4958Z" fill="white"/>
<path d="M24.9104 34.5537H23.0098V36.4543H24.9104V34.5537Z" fill="white"/>
<path d="M24.9104 32.6531H23.0098V34.5537H24.9104V32.6531Z" fill="white"/>
<path d="M24.9104 30.7112H23.0098V32.6118H24.9104V30.7112Z" fill="white"/>
<path d="M24.9104 28.8105H23.0098V30.7112H24.9104V28.8105Z" fill="white"/>
<path d="M23.01 38.3965H21.1094V40.2971H23.01V38.3965Z" fill="white"/>
<path d="M23.01 36.4958H21.1094V38.3965H23.01V36.4958Z" fill="white"/>
<path d="M23.01 34.5537H21.1094V36.4543H23.01V34.5537Z" fill="white"/>
<path d="M23.01 32.6531H21.1094V34.5537H23.01V32.6531Z" fill="white"/>
<path d="M23.01 30.7112H21.1094V32.6118H23.01V30.7112Z" fill="white"/>
<path d="M21.1091 38.3965H19.2085V40.2971H21.1091V38.3965Z" fill="white"/>
<path d="M21.1091 36.4958H19.2085V38.3965H21.1091V36.4958Z" fill="white"/>
<path d="M21.1091 34.5537H19.2085V36.4543H21.1091V34.5537Z" fill="white"/>
<path d="M21.1091 32.6531H19.2085V34.5537H21.1091V32.6531Z" fill="white"/>
<path d="M21.1091 30.7112H19.2085V32.6118H21.1091V30.7112Z" fill="white"/>
<path d="M19.1672 36.4958H17.2666V38.3965H19.1672V36.4958Z" fill="white"/>
<path d="M19.1672 34.5537H17.2666V36.4543H19.1672V34.5537Z" fill="white"/>
<path d="M19.1672 32.6531H17.2666V34.5537H19.1672V32.6531Z" fill="white"/>
<path d="M17.2668 36.4958H15.3662V38.3965H17.2668V36.4958Z" fill="white"/>
<path d="M17.2668 34.5537H15.3662V36.4543H17.2668V34.5537Z" fill="white"/>
<path d="M17.2668 32.6531H15.3662V34.5537H17.2668V32.6531Z" fill="white"/>
<path d="M15.366 36.4958H13.4653V38.3965H15.366V36.4958Z" fill="white"/>
<path d="M15.366 34.5537H13.4653V36.4543H15.366V34.5537Z" fill="white"/>
</svg>
